<mxfile host="app.diagrams.net" modified="2024-03-26T17:21:59.869Z" agent="Mozilla/5.0 (Windows NT 10.0; Win64; x64) AppleWebKit/537.36 (KHTML, like Gecko) Chrome/122.0.0.0 Safari/537.36" etag="lmP1zsT0IMjevFfM6xlW" version="24.2.0" type="device">
  <diagram name="PÃ¡gina-1" id="QA6oelhNMc_RQXxxQOC8">
    <mxGraphModel dx="1434" dy="738" grid="1" gridSize="10" guides="1" tooltips="1" connect="1" arrows="1" fold="1" page="1" pageScale="1" pageWidth="827" pageHeight="1169" math="0" shadow="0">
      <root>
        <mxCell id="0" />
        <mxCell id="1" parent="0" />
        <mxCell id="X9jzypsoa2OpxFTJ5b24-10" value="" style="group" vertex="1" connectable="0" parent="1">
          <mxGeometry x="690" y="40" width="470" height="670" as="geometry" />
        </mxCell>
        <mxCell id="X9jzypsoa2OpxFTJ5b24-2" value="" style="shape=folder;fontStyle=1;spacingTop=10;tabWidth=40;tabHeight=14;tabPosition=left;html=1;whiteSpace=wrap;" vertex="1" parent="X9jzypsoa2OpxFTJ5b24-10">
          <mxGeometry y="20" width="470" height="650" as="geometry" />
        </mxCell>
        <mxCell id="X9jzypsoa2OpxFTJ5b24-7" value="&lt;span style=&quot;font-weight: 700;&quot;&gt;External Services&lt;/span&gt;" style="rounded=0;whiteSpace=wrap;html=1;" vertex="1" parent="X9jzypsoa2OpxFTJ5b24-10">
          <mxGeometry width="130" height="40" as="geometry" />
        </mxCell>
        <mxCell id="X9jzypsoa2OpxFTJ5b24-8" value="FireBase Storage" style="shape=folder;fontStyle=1;spacingTop=10;tabWidth=40;tabHeight=14;tabPosition=left;html=1;whiteSpace=wrap;" vertex="1" parent="X9jzypsoa2OpxFTJ5b24-10">
          <mxGeometry x="115" y="370" width="240" height="150" as="geometry" />
        </mxCell>
        <mxCell id="X9jzypsoa2OpxFTJ5b24-13" value="Federated Login" style="shape=folder;fontStyle=1;spacingTop=10;tabWidth=40;tabHeight=14;tabPosition=left;html=1;whiteSpace=wrap;" vertex="1" parent="X9jzypsoa2OpxFTJ5b24-10">
          <mxGeometry x="115" y="100" width="240" height="150" as="geometry" />
        </mxCell>
        <mxCell id="X9jzypsoa2OpxFTJ5b24-11" value="" style="group" vertex="1" connectable="0" parent="1">
          <mxGeometry x="70" y="50" width="470" height="650" as="geometry" />
        </mxCell>
        <mxCell id="X9jzypsoa2OpxFTJ5b24-1" value="" style="shape=folder;fontStyle=1;spacingTop=10;tabWidth=40;tabHeight=14;tabPosition=left;html=1;whiteSpace=wrap;" vertex="1" parent="X9jzypsoa2OpxFTJ5b24-11">
          <mxGeometry y="10" width="470" height="650" as="geometry" />
        </mxCell>
        <mxCell id="X9jzypsoa2OpxFTJ5b24-3" value="UniLift Mobile UI" style="shape=folder;fontStyle=1;spacingTop=10;tabWidth=40;tabHeight=14;tabPosition=left;html=1;whiteSpace=wrap;" vertex="1" parent="X9jzypsoa2OpxFTJ5b24-11">
          <mxGeometry x="160" y="100" width="130" height="90" as="geometry" />
        </mxCell>
        <mxCell id="X9jzypsoa2OpxFTJ5b24-4" value="Database Schema" style="shape=folder;fontStyle=1;spacingTop=10;tabWidth=40;tabHeight=14;tabPosition=left;html=1;whiteSpace=wrap;" vertex="1" parent="X9jzypsoa2OpxFTJ5b24-11">
          <mxGeometry x="160" y="480" width="130" height="90" as="geometry" />
        </mxCell>
        <mxCell id="X9jzypsoa2OpxFTJ5b24-5" value="Business Logic" style="shape=folder;fontStyle=1;spacingTop=10;tabWidth=40;tabHeight=14;tabPosition=left;html=1;whiteSpace=wrap;" vertex="1" parent="X9jzypsoa2OpxFTJ5b24-11">
          <mxGeometry x="160" y="280" width="130" height="90" as="geometry" />
        </mxCell>
        <mxCell id="X9jzypsoa2OpxFTJ5b24-6" value="UniLift" style="rounded=0;whiteSpace=wrap;html=1;" vertex="1" parent="X9jzypsoa2OpxFTJ5b24-11">
          <mxGeometry width="130" height="30" as="geometry" />
        </mxCell>
        <mxCell id="X9jzypsoa2OpxFTJ5b24-12" value="" style="endArrow=none;dashed=1;html=1;rounded=0;entryX=0.5;entryY=1;entryDx=0;entryDy=0;entryPerimeter=0;" edge="1" parent="X9jzypsoa2OpxFTJ5b24-11" source="X9jzypsoa2OpxFTJ5b24-5" target="X9jzypsoa2OpxFTJ5b24-3">
          <mxGeometry width="50" height="50" relative="1" as="geometry">
            <mxPoint x="210" y="280" as="sourcePoint" />
            <mxPoint x="100" y="190" as="targetPoint" />
          </mxGeometry>
        </mxCell>
        <mxCell id="X9jzypsoa2OpxFTJ5b24-15" value="" style="endArrow=none;dashed=1;html=1;rounded=0;entryX=0.5;entryY=1;entryDx=0;entryDy=0;entryPerimeter=0;" edge="1" parent="X9jzypsoa2OpxFTJ5b24-11" target="X9jzypsoa2OpxFTJ5b24-5">
          <mxGeometry width="50" height="50" relative="1" as="geometry">
            <mxPoint x="225" y="490" as="sourcePoint" />
            <mxPoint x="470" y="260" as="targetPoint" />
          </mxGeometry>
        </mxCell>
        <mxCell id="X9jzypsoa2OpxFTJ5b24-17" value="" style="endArrow=none;dashed=1;html=1;rounded=0;exitX=0;exitY=0;exitDx=130;exitDy=52;exitPerimeter=0;entryX=0.004;entryY=0.453;entryDx=0;entryDy=0;entryPerimeter=0;" edge="1" parent="1" source="X9jzypsoa2OpxFTJ5b24-5" target="X9jzypsoa2OpxFTJ5b24-13">
          <mxGeometry width="50" height="50" relative="1" as="geometry">
            <mxPoint x="490" y="360" as="sourcePoint" />
            <mxPoint x="540" y="310" as="targetPoint" />
          </mxGeometry>
        </mxCell>
        <mxCell id="X9jzypsoa2OpxFTJ5b24-18" value="" style="endArrow=none;dashed=1;html=1;rounded=0;exitX=0;exitY=0;exitDx=130;exitDy=52;exitPerimeter=0;entryX=0;entryY=0;entryDx=0;entryDy=82;entryPerimeter=0;" edge="1" parent="1" source="X9jzypsoa2OpxFTJ5b24-4" target="X9jzypsoa2OpxFTJ5b24-8">
          <mxGeometry width="50" height="50" relative="1" as="geometry">
            <mxPoint x="490" y="360" as="sourcePoint" />
            <mxPoint x="540" y="310" as="targetPoint" />
          </mxGeometry>
        </mxCell>
      </root>
    </mxGraphModel>
  </diagram>
</mxfile>
